<svg width="379" height="394" viewBox="0 0 379 394" fill="none" xmlns="http://www.w3.org/2000/svg">
<path d="M136.546 351.528C87.5795 333.225 41.2843 299.631 16.5657 252.305C-5.81333 209.458 1.96811 154.313 15.1971 109.743C24.9396 76.9193 41.7787 38.3681 72.7921 20.5563C91.5527 9.78162 113.849 5.48191 135.063 3.39182C166.173 0.326818 198.456 0.627398 229.667 1.9662C267.762 3.60028 310.491 13.5053 337.216 43.024C356.919 64.7871 366.149 97.0499 368.865 125.596C376.257 203.305 356.674 292.937 297.014 347.65C246.789 393.711 169.055 396.526 107.805 374.68C81.0124 365.124 60.2472 347.449 42.3979 325.582C26.3872 305.967 16.3656 290.929 10.35 266.219C4.9213 243.92 7.27592 224.926 10.0649 202.465C14.412 167.457 21.8126 132.128 34.2434 99.0224C42.5964 76.7765 53.795 54.8051 71.3665 38.405C93.5435 17.7065 123.882 12.6415 152.912 9.83562C183.931 6.83746 214.89 4.93058 246.033 6.87033C260.452 7.76835 278.285 7.86367 291.995 13.1431C331.03 28.1739 353.191 77.876 364.189 114.419C378.051 160.481 383.828 214.177 367.952 260.574C352.514 305.692 316.776 344.396 277.055 369.776C225.99 402.404 158.882 397.417 105.695 372.627C67.3419 354.751 29.6307 324.857 15.2541 283.669C0.443713 241.237 -0.0784778 193.893 1.73927 149.546C2.73046 125.365 6.146 104.751 14.3988 82.5992" stroke="#16B978" stroke-width="3" stroke-linecap="round"/>
</svg>
